<?xml version="1.0" encoding="utf-8"?>
<!-- Generator: Adobe Illustrator 26.2.1, SVG Export Plug-In . SVG Version: 6.00 Build 0)  -->
<svg version="1.1" id="Camada_1" xmlns="http://www.w3.org/2000/svg" xmlns:xlink="http://www.w3.org/1999/xlink" x="0px" y="0px"
	 viewBox="0 0 600 111.86" style="enable-background:new 0 0 600 111.86;" xml:space="preserve">
<style type="text/css">
	.st0{fill:#2878B3;}
	.st1{fill:#123F85;}
	.st2{fill:#66AB9C;}
	.st3{fill:#539BC9;}
	.st4{fill:#575655;}
</style>
<g>
	<g>
		<g>
			<path class="st0" d="M203.95,64.43c-9.19,9.22-21.74,15.41-34.34,18.14c-27.65,5.98-50.04-15.45-71.63-29.13
				C87.56,46.82,76.27,40.42,63.5,42.15c-16.25,2.21-31.98,11.02-44.82,20.94c-3.03,2.34,1.21,6.51,4.2,4.2
				c13-10.05,30.99-20.59,48.01-19.42c6.65,0.45,12.92,4.08,18.55,7.33c10.35,5.96,20.16,12.92,30.1,19.52
				c19.04,12.65,38.25,18.6,60.58,11.12c10.2-3.42,20.4-9.55,28.02-17.21C210.85,65.91,206.66,61.71,203.95,64.43"/>
			<path class="st1" d="M17.44,67.86c18.88,24.29,51.1,38.02,79.62,22.31c17.95-9.88,34.23-27.01,54.61-32.01
				c8.39-2.06,17.31,1.22,25.3,3.4c9.1,2.48,19.95,4.34,28.86,7.46c3.62,1.27,5.17-4.47,1.58-5.73c-15.39-5.39-34.82-12-51.35-11.65
				c-14.41,0.3-27.95,11.09-39.38,18.6c-11.07,7.26-21.86,16.13-34.72,19.91c-11.32,3.33-23.32,0.59-33.63-4.49
				c-10.18-5.01-19.71-13.03-26.68-22C19.3,60.64,15.12,64.88,17.44,67.86"/>
			<path class="st2" d="M18.19,68.27c27.2,20.77,64.29,5.11,89.62-9.9c8.16-4.84,16.49-8.96,25.78-11.13
				c13.08-3.06,27,0.12,39.6,3.78c10.71,3.11,23.85,8.42,31.35,17.27c2.48,2.93,6.66-1.29,4.2-4.2c-6-7.09-15.65-11.92-24.05-15.27
				c-19.77-7.88-41.65-11.93-62.1-4.49c-18.76,6.82-33.61,20.69-53.32,25.5c-15,3.66-35.17,3.16-48.07-6.69
				C18.14,60.81,15.19,65.98,18.19,68.27"/>
			<path class="st3" d="M209.45,65.12c-16.61-24.97-46.63-56.31-79.53-51.87C107.5,16.27,91.56,32.99,74.9,46.71
				c-12.09,9.97-37.7,27.3-53.85,16.33c-3.18-2.16-6.15,2.99-3,5.13c10.4,7.06,26.11,2.62,36.45-1.65
				c21.02-8.68,35.54-27.24,54.38-39.3c37.1-23.73,75.33,10.66,95.44,40.88c2.11,3.17,7.08-0.09,4.95-3.29L209.45,65.12z"/>
		</g>
	</g>
	<g>
		<polygon class="st1" points="237.19,30.6 251.65,30.6 251.65,70.11 276.93,70.11 276.93,82.79 237.19,82.79 		"/>
		<rect x="295.3" y="30.6" class="st1" width="14.54" height="52.19"/>
		<polygon class="st1" points="326.06,30.6 342.24,30.6 354.1,63.63 365.95,30.6 381.84,30.6 360.66,83.16 347.24,83.16 		"/>
		<path class="st2" d="M414.51,68.21l3.42-4.08c3.1,2.69,6.2,4.21,10.24,4.21c3.52,0,5.74-1.62,5.74-4.08v-0.09
			c0-2.31-1.29-3.56-7.31-4.95c-6.9-1.67-10.79-3.7-10.79-9.68v-0.09c0-5.56,4.63-9.4,11.07-9.4c4.72,0,8.47,1.44,11.76,4.08
			l-3.06,4.3c-2.92-2.18-5.84-3.33-8.8-3.33c-3.34,0-5.28,1.71-5.28,3.84v0.09c0,2.5,1.48,3.61,7.69,5.09
			c6.85,1.67,10.42,4.12,10.42,9.49v0.09c0,6.06-4.77,9.68-11.58,9.68C423.07,73.39,418.4,71.68,414.51,68.21"/>
		<path class="st2" d="M467.86,60.06l-5.6-12.97l-5.56,12.97H467.86z M459.71,40.28H465l14.26,32.65h-6.02l-3.29-7.83h-15.33
			l-3.33,7.83h-5.84L459.71,40.28z"/>
		<path class="st2" d="M502.51,31.16l5.1,2.22l-5.93,4.49h-4.35L502.51,31.16z M485.75,59.18V40.52h5.7v18.43
			c0,6.02,3.1,9.26,8.19,9.26c5.05,0,8.15-3.06,8.15-9.03V40.52h5.69V58.9c0,9.68-5.46,14.54-13.94,14.54
			C491.12,73.44,485.75,68.58,485.75,59.18"/>
		<path class="st2" d="M536.01,67.75c6.81,0,11.25-4.58,11.25-10.93v-0.09c0-6.34-4.45-11.02-11.25-11.02h-6.39v22.04H536.01z
			 M523.92,40.52h12.09c10.19,0,17.23,6.99,17.23,16.11v0.09c0,9.12-7.04,16.21-17.23,16.21h-12.09V40.52z"/>
		<polygon class="st2" points="562.74,40.52 586.77,40.52 586.77,45.61 568.43,45.61 568.43,54.04 584.69,54.04 584.69,59.13 
			568.43,59.13 568.43,67.84 587,67.84 587,72.93 562.74,72.93 		"/>
		<rect x="397.81" y="16.79" class="st4" width="0.73" height="80.86"/>
	</g>
</g>
<g>
</g>
<g>
</g>
<g>
</g>
<g>
</g>
<g>
</g>
<g>
</g>
</svg>
